<mxfile host="app.diagrams.net" modified="2023-11-08T01:04:55.723Z" agent="Mozilla/5.0 (Windows NT 10.0; Win64; x64) AppleWebKit/537.36 (KHTML, like Gecko) Chrome/119.0.0.0 Safari/537.36" etag="SrLcDs1BvtWjOUhnoPho" version="22.0.8" type="google">
  <diagram name="Page-1" id="qXM89XTeMf5cefKTgedM">
    <mxGraphModel grid="1" page="1" gridSize="10" guides="1" tooltips="1" connect="1" arrows="1" fold="1" pageScale="1" pageWidth="827" pageHeight="1169" math="0" shadow="0">
      <root>
        <mxCell id="0" />
        <mxCell id="1" parent="0" />
        <mxCell id="MZK47ivyReXVb0teuUOC-55" value="RoomRersevationHistory" style="swimlane;fontStyle=1;align=center;verticalAlign=top;childLayout=stackLayout;horizontal=1;startSize=26;horizontalStack=0;resizeParent=1;resizeParentMax=0;resizeLast=0;collapsible=1;marginBottom=0;whiteSpace=wrap;html=1;" vertex="1" parent="1">
          <mxGeometry x="1241" y="440" width="160" height="86" as="geometry" />
        </mxCell>
        <mxCell id="MZK47ivyReXVb0teuUOC-56" value="+ RersevationHistoryID: int" style="text;strokeColor=none;fillColor=none;align=left;verticalAlign=top;spacingLeft=4;spacingRight=4;overflow=hidden;rotatable=0;points=[[0,0.5],[1,0.5]];portConstraint=eastwest;whiteSpace=wrap;html=1;" vertex="1" parent="MZK47ivyReXVb0teuUOC-55">
          <mxGeometry y="26" width="160" height="26" as="geometry" />
        </mxCell>
        <mxCell id="MZK47ivyReXVb0teuUOC-57" value="" style="line;strokeWidth=1;fillColor=none;align=left;verticalAlign=middle;spacingTop=-1;spacingLeft=3;spacingRight=3;rotatable=0;labelPosition=right;points=[];portConstraint=eastwest;strokeColor=inherit;" vertex="1" parent="MZK47ivyReXVb0teuUOC-55">
          <mxGeometry y="52" width="160" height="8" as="geometry" />
        </mxCell>
        <mxCell id="MZK47ivyReXVb0teuUOC-58" value="&amp;nbsp;" style="text;strokeColor=none;fillColor=none;align=left;verticalAlign=top;spacingLeft=4;spacingRight=4;overflow=hidden;rotatable=0;points=[[0,0.5],[1,0.5]];portConstraint=eastwest;whiteSpace=wrap;html=1;" vertex="1" parent="MZK47ivyReXVb0teuUOC-55">
          <mxGeometry y="60" width="160" height="26" as="geometry" />
        </mxCell>
        <mxCell id="WeFiFPSYRljII1s766pl-1" value="RoomRersevation" style="swimlane;fontStyle=1;align=center;verticalAlign=top;childLayout=stackLayout;horizontal=1;startSize=26;horizontalStack=0;resizeParent=1;resizeParentMax=0;resizeLast=0;collapsible=1;marginBottom=0;whiteSpace=wrap;html=1;" vertex="1" parent="1">
          <mxGeometry x="-520" y="480" width="160" height="86" as="geometry" />
        </mxCell>
        <mxCell id="WeFiFPSYRljII1s766pl-2" value="&amp;nbsp;" style="text;strokeColor=none;fillColor=none;align=left;verticalAlign=top;spacingLeft=4;spacingRight=4;overflow=hidden;rotatable=0;points=[[0,0.5],[1,0.5]];portConstraint=eastwest;whiteSpace=wrap;html=1;" vertex="1" parent="WeFiFPSYRljII1s766pl-1">
          <mxGeometry y="26" width="160" height="26" as="geometry" />
        </mxCell>
        <mxCell id="WeFiFPSYRljII1s766pl-3" value="" style="line;strokeWidth=1;fillColor=none;align=left;verticalAlign=middle;spacingTop=-1;spacingLeft=3;spacingRight=3;rotatable=0;labelPosition=right;points=[];portConstraint=eastwest;strokeColor=inherit;" vertex="1" parent="WeFiFPSYRljII1s766pl-1">
          <mxGeometry y="52" width="160" height="8" as="geometry" />
        </mxCell>
        <mxCell id="WeFiFPSYRljII1s766pl-4" value="&amp;nbsp;" style="text;strokeColor=none;fillColor=none;align=left;verticalAlign=top;spacingLeft=4;spacingRight=4;overflow=hidden;rotatable=0;points=[[0,0.5],[1,0.5]];portConstraint=eastwest;whiteSpace=wrap;html=1;" vertex="1" parent="WeFiFPSYRljII1s766pl-1">
          <mxGeometry y="60" width="160" height="26" as="geometry" />
        </mxCell>
        <mxCell id="WeFiFPSYRljII1s766pl-20" value="Manager" style="swimlane;fontStyle=1;align=center;verticalAlign=top;childLayout=stackLayout;horizontal=1;startSize=26;horizontalStack=0;resizeParent=1;resizeParentMax=0;resizeLast=0;collapsible=1;marginBottom=0;whiteSpace=wrap;html=1;" vertex="1" parent="1">
          <mxGeometry x="-520" y="270" width="1040" height="138" as="geometry" />
        </mxCell>
        <mxCell id="WeFiFPSYRljII1s766pl-22" value="&amp;nbsp;" style="text;strokeColor=none;fillColor=none;align=left;verticalAlign=top;spacingLeft=4;spacingRight=4;overflow=hidden;rotatable=0;points=[[0,0.5],[1,0.5]];portConstraint=eastwest;whiteSpace=wrap;html=1;" vertex="1" parent="WeFiFPSYRljII1s766pl-20">
          <mxGeometry y="26" width="1040" height="26" as="geometry" />
        </mxCell>
        <mxCell id="WeFiFPSYRljII1s766pl-23" value="" style="line;strokeWidth=1;fillColor=none;align=left;verticalAlign=middle;spacingTop=-1;spacingLeft=3;spacingRight=3;rotatable=0;labelPosition=right;points=[];portConstraint=eastwest;strokeColor=inherit;" vertex="1" parent="WeFiFPSYRljII1s766pl-20">
          <mxGeometry y="52" width="1040" height="8" as="geometry" />
        </mxCell>
        <mxCell id="WeFiFPSYRljII1s766pl-24" value="+ AddFamilyMember(Guest1_Name: string,Guest1_PhoneNumber: int,Guest1_UserID: int,Guest1_Name: string,Guest1_PhoneNumber: int,Guest1_UserID: int): bool&lt;br&gt;" style="text;strokeColor=none;fillColor=none;align=left;verticalAlign=top;spacingLeft=4;spacingRight=4;overflow=hidden;rotatable=0;points=[[0,0.5],[1,0.5]];portConstraint=eastwest;whiteSpace=wrap;html=1;" vertex="1" parent="WeFiFPSYRljII1s766pl-20">
          <mxGeometry y="60" width="1040" height="26" as="geometry" />
        </mxCell>
        <mxCell id="vIy7j_pHb_5L0HNnq9O6-38" value="+ ReservationHistoryChecking(): void" style="text;strokeColor=none;fillColor=none;align=left;verticalAlign=top;spacingLeft=4;spacingRight=4;overflow=hidden;rotatable=0;points=[[0,0.5],[1,0.5]];portConstraint=eastwest;whiteSpace=wrap;html=1;" vertex="1" parent="WeFiFPSYRljII1s766pl-20">
          <mxGeometry y="86" width="1040" height="26" as="geometry" />
        </mxCell>
        <mxCell id="WeFiFPSYRljII1s766pl-27" value="+ VIPLevelPromotion(GuestID: int, VIPlevel: int): bool" style="text;strokeColor=none;fillColor=none;align=left;verticalAlign=top;spacingLeft=4;spacingRight=4;overflow=hidden;rotatable=0;points=[[0,0.5],[1,0.5]];portConstraint=eastwest;whiteSpace=wrap;html=1;" vertex="1" parent="WeFiFPSYRljII1s766pl-20">
          <mxGeometry y="112" width="1040" height="26" as="geometry" />
        </mxCell>
        <mxCell id="vIy7j_pHb_5L0HNnq9O6-1" value="User" style="swimlane;fontStyle=1;align=center;verticalAlign=top;childLayout=stackLayout;horizontal=1;startSize=26;horizontalStack=0;resizeParent=1;resizeParentMax=0;resizeLast=0;collapsible=1;marginBottom=0;whiteSpace=wrap;html=1;" vertex="1" parent="1">
          <mxGeometry x="-840" y="-200" width="160" height="242" as="geometry" />
        </mxCell>
        <mxCell id="vIy7j_pHb_5L0HNnq9O6-2" value="- UserName: string" style="text;strokeColor=none;fillColor=none;align=left;verticalAlign=top;spacingLeft=4;spacingRight=4;overflow=hidden;rotatable=0;points=[[0,0.5],[1,0.5]];portConstraint=eastwest;whiteSpace=wrap;html=1;" vertex="1" parent="vIy7j_pHb_5L0HNnq9O6-1">
          <mxGeometry y="26" width="160" height="26" as="geometry" />
        </mxCell>
        <mxCell id="vIy7j_pHb_5L0HNnq9O6-3" value="- PhoneNumber: Int" style="text;strokeColor=none;fillColor=none;align=left;verticalAlign=top;spacingLeft=4;spacingRight=4;overflow=hidden;rotatable=0;points=[[0,0.5],[1,0.5]];portConstraint=eastwest;whiteSpace=wrap;html=1;" vertex="1" parent="vIy7j_pHb_5L0HNnq9O6-1">
          <mxGeometry y="52" width="160" height="26" as="geometry" />
        </mxCell>
        <mxCell id="vIy7j_pHb_5L0HNnq9O6-4" value="- UserID: Int" style="text;strokeColor=none;fillColor=none;align=left;verticalAlign=top;spacingLeft=4;spacingRight=4;overflow=hidden;rotatable=0;points=[[0,0.5],[1,0.5]];portConstraint=eastwest;whiteSpace=wrap;html=1;" vertex="1" parent="vIy7j_pHb_5L0HNnq9O6-1">
          <mxGeometry y="78" width="160" height="26" as="geometry" />
        </mxCell>
        <mxCell id="vIy7j_pHb_5L0HNnq9O6-33" value="- UserType: string" style="text;strokeColor=none;fillColor=none;align=left;verticalAlign=top;spacingLeft=4;spacingRight=4;overflow=hidden;rotatable=0;points=[[0,0.5],[1,0.5]];portConstraint=eastwest;whiteSpace=wrap;html=1;" vertex="1" parent="vIy7j_pHb_5L0HNnq9O6-1">
          <mxGeometry y="104" width="160" height="26" as="geometry" />
        </mxCell>
        <mxCell id="vIy7j_pHb_5L0HNnq9O6-5" value="" style="line;strokeWidth=1;fillColor=none;align=left;verticalAlign=middle;spacingTop=-1;spacingLeft=3;spacingRight=3;rotatable=0;labelPosition=right;points=[];portConstraint=eastwest;strokeColor=inherit;" vertex="1" parent="vIy7j_pHb_5L0HNnq9O6-1">
          <mxGeometry y="130" width="160" height="8" as="geometry" />
        </mxCell>
        <mxCell id="vIy7j_pHb_5L0HNnq9O6-7" value="+ GetName(): string" style="text;strokeColor=none;fillColor=none;align=left;verticalAlign=top;spacingLeft=4;spacingRight=4;overflow=hidden;rotatable=0;points=[[0,0.5],[1,0.5]];portConstraint=eastwest;whiteSpace=wrap;html=1;" vertex="1" parent="vIy7j_pHb_5L0HNnq9O6-1">
          <mxGeometry y="138" width="160" height="26" as="geometry" />
        </mxCell>
        <mxCell id="vIy7j_pHb_5L0HNnq9O6-8" value="+ GetPhoneNumber(): int" style="text;strokeColor=none;fillColor=none;align=left;verticalAlign=top;spacingLeft=4;spacingRight=4;overflow=hidden;rotatable=0;points=[[0,0.5],[1,0.5]];portConstraint=eastwest;whiteSpace=wrap;html=1;" vertex="1" parent="vIy7j_pHb_5L0HNnq9O6-1">
          <mxGeometry y="164" width="160" height="26" as="geometry" />
        </mxCell>
        <mxCell id="vIy7j_pHb_5L0HNnq9O6-34" value="+ GetUserID(): int" style="text;strokeColor=none;fillColor=none;align=left;verticalAlign=top;spacingLeft=4;spacingRight=4;overflow=hidden;rotatable=0;points=[[0,0.5],[1,0.5]];portConstraint=eastwest;whiteSpace=wrap;html=1;" vertex="1" parent="vIy7j_pHb_5L0HNnq9O6-1">
          <mxGeometry y="190" width="160" height="26" as="geometry" />
        </mxCell>
        <mxCell id="vIy7j_pHb_5L0HNnq9O6-6" value="+ GetType(): string" style="text;strokeColor=none;fillColor=none;align=left;verticalAlign=top;spacingLeft=4;spacingRight=4;overflow=hidden;rotatable=0;points=[[0,0.5],[1,0.5]];portConstraint=eastwest;whiteSpace=wrap;html=1;" vertex="1" parent="vIy7j_pHb_5L0HNnq9O6-1">
          <mxGeometry y="216" width="160" height="26" as="geometry" />
        </mxCell>
        <mxCell id="vIy7j_pHb_5L0HNnq9O6-11" value="Resort" style="swimlane;fontStyle=1;align=center;verticalAlign=top;childLayout=stackLayout;horizontal=1;startSize=26;horizontalStack=0;resizeParent=1;resizeParentMax=0;resizeLast=0;collapsible=1;marginBottom=0;whiteSpace=wrap;html=1;" vertex="1" parent="1">
          <mxGeometry x="-1100" y="112" width="160" height="112" as="geometry" />
        </mxCell>
        <mxCell id="vIy7j_pHb_5L0HNnq9O6-12" value="+ ResortID:int" style="text;strokeColor=none;fillColor=none;align=left;verticalAlign=top;spacingLeft=4;spacingRight=4;overflow=hidden;rotatable=0;points=[[0,0.5],[1,0.5]];portConstraint=eastwest;whiteSpace=wrap;html=1;" vertex="1" parent="vIy7j_pHb_5L0HNnq9O6-11">
          <mxGeometry y="26" width="160" height="26" as="geometry" />
        </mxCell>
        <mxCell id="vIy7j_pHb_5L0HNnq9O6-85" value="+ Address:string" style="text;strokeColor=none;fillColor=none;align=left;verticalAlign=top;spacingLeft=4;spacingRight=4;overflow=hidden;rotatable=0;points=[[0,0.5],[1,0.5]];portConstraint=eastwest;whiteSpace=wrap;html=1;" vertex="1" parent="vIy7j_pHb_5L0HNnq9O6-11">
          <mxGeometry y="52" width="160" height="26" as="geometry" />
        </mxCell>
        <mxCell id="vIy7j_pHb_5L0HNnq9O6-13" value="" style="line;strokeWidth=1;fillColor=none;align=left;verticalAlign=middle;spacingTop=-1;spacingLeft=3;spacingRight=3;rotatable=0;labelPosition=right;points=[];portConstraint=eastwest;strokeColor=inherit;" vertex="1" parent="vIy7j_pHb_5L0HNnq9O6-11">
          <mxGeometry y="78" width="160" height="8" as="geometry" />
        </mxCell>
        <mxCell id="vIy7j_pHb_5L0HNnq9O6-14" value="&amp;nbsp;" style="text;strokeColor=none;fillColor=none;align=left;verticalAlign=top;spacingLeft=4;spacingRight=4;overflow=hidden;rotatable=0;points=[[0,0.5],[1,0.5]];portConstraint=eastwest;whiteSpace=wrap;html=1;" vertex="1" parent="vIy7j_pHb_5L0HNnq9O6-11">
          <mxGeometry y="86" width="160" height="26" as="geometry" />
        </mxCell>
        <mxCell id="vIy7j_pHb_5L0HNnq9O6-21" value="Guest" style="swimlane;fontStyle=1;align=center;verticalAlign=top;childLayout=stackLayout;horizontal=1;startSize=26;horizontalStack=0;resizeParent=1;resizeParentMax=0;resizeLast=0;collapsible=1;marginBottom=0;whiteSpace=wrap;html=1;" vertex="1" parent="1">
          <mxGeometry x="-520" y="69" width="1040" height="164" as="geometry" />
        </mxCell>
        <mxCell id="vIy7j_pHb_5L0HNnq9O6-24" value="&amp;nbsp;" style="text;strokeColor=none;fillColor=none;align=left;verticalAlign=top;spacingLeft=4;spacingRight=4;overflow=hidden;rotatable=0;points=[[0,0.5],[1,0.5]];portConstraint=eastwest;whiteSpace=wrap;html=1;" vertex="1" parent="vIy7j_pHb_5L0HNnq9O6-21">
          <mxGeometry y="26" width="1040" height="26" as="geometry" />
        </mxCell>
        <mxCell id="vIy7j_pHb_5L0HNnq9O6-25" value="" style="line;strokeWidth=1;fillColor=none;align=left;verticalAlign=middle;spacingTop=-1;spacingLeft=3;spacingRight=3;rotatable=0;labelPosition=right;points=[];portConstraint=eastwest;strokeColor=inherit;" vertex="1" parent="vIy7j_pHb_5L0HNnq9O6-21">
          <mxGeometry y="52" width="1040" height="8" as="geometry" />
        </mxCell>
        <mxCell id="vIy7j_pHb_5L0HNnq9O6-27" value="+ AddFamilyMember(Name: string, PhoneNumber: int, UserID: int): boolean" style="text;strokeColor=none;fillColor=none;align=left;verticalAlign=top;spacingLeft=4;spacingRight=4;overflow=hidden;rotatable=0;points=[[0,0.5],[1,0.5]];portConstraint=eastwest;whiteSpace=wrap;html=1;" vertex="1" parent="vIy7j_pHb_5L0HNnq9O6-21">
          <mxGeometry y="60" width="1040" height="26" as="geometry" />
        </mxCell>
        <mxCell id="vIy7j_pHb_5L0HNnq9O6-35" value="+ UserAccountDelete(): boolean" style="text;strokeColor=none;fillColor=none;align=left;verticalAlign=top;spacingLeft=4;spacingRight=4;overflow=hidden;rotatable=0;points=[[0,0.5],[1,0.5]];portConstraint=eastwest;whiteSpace=wrap;html=1;" vertex="1" parent="vIy7j_pHb_5L0HNnq9O6-21">
          <mxGeometry y="86" width="1040" height="26" as="geometry" />
        </mxCell>
        <mxCell id="vIy7j_pHb_5L0HNnq9O6-36" value="+ ReservationHistoryChecking(): void" style="text;strokeColor=none;fillColor=none;align=left;verticalAlign=top;spacingLeft=4;spacingRight=4;overflow=hidden;rotatable=0;points=[[0,0.5],[1,0.5]];portConstraint=eastwest;whiteSpace=wrap;html=1;" vertex="1" parent="vIy7j_pHb_5L0HNnq9O6-21">
          <mxGeometry y="112" width="1040" height="26" as="geometry" />
        </mxCell>
        <mxCell id="vIy7j_pHb_5L0HNnq9O6-28" value="+ VIPLevelPromotion(): bool" style="text;strokeColor=none;fillColor=none;align=left;verticalAlign=top;spacingLeft=4;spacingRight=4;overflow=hidden;rotatable=0;points=[[0,0.5],[1,0.5]];portConstraint=eastwest;whiteSpace=wrap;html=1;" vertex="1" parent="vIy7j_pHb_5L0HNnq9O6-21">
          <mxGeometry y="138" width="1040" height="26" as="geometry" />
        </mxCell>
        <mxCell id="vIy7j_pHb_5L0HNnq9O6-31" style="edgeStyle=orthogonalEdgeStyle;rounded=0;orthogonalLoop=1;jettySize=auto;html=1;exitX=0.25;exitY=0;exitDx=0;exitDy=0;entryX=1;entryY=0.5;entryDx=0;entryDy=0;endArrow=block;endFill=0;" edge="1" parent="1" source="vIy7j_pHb_5L0HNnq9O6-21" target="vIy7j_pHb_5L0HNnq9O6-2">
          <mxGeometry relative="1" as="geometry">
            <mxPoint x="-380" y="89" as="sourcePoint" />
            <Array as="points">
              <mxPoint x="-260" y="-161" />
            </Array>
          </mxGeometry>
        </mxCell>
        <mxCell id="vIy7j_pHb_5L0HNnq9O6-32" style="edgeStyle=orthogonalEdgeStyle;rounded=0;orthogonalLoop=1;jettySize=auto;html=1;exitX=0.25;exitY=0;exitDx=0;exitDy=0;entryX=1;entryY=0.5;entryDx=0;entryDy=0;endArrow=block;endFill=0;" edge="1" parent="1" source="WeFiFPSYRljII1s766pl-20" target="vIy7j_pHb_5L0HNnq9O6-2">
          <mxGeometry relative="1" as="geometry">
            <Array as="points">
              <mxPoint x="-260" y="250" />
              <mxPoint x="-580" y="250" />
              <mxPoint x="-580" y="-161" />
            </Array>
          </mxGeometry>
        </mxCell>
        <mxCell id="vIy7j_pHb_5L0HNnq9O6-39" value="Reservation" style="swimlane;fontStyle=1;align=center;verticalAlign=top;childLayout=stackLayout;horizontal=1;startSize=26;horizontalStack=0;resizeParent=1;resizeParentMax=0;resizeLast=0;collapsible=1;marginBottom=0;whiteSpace=wrap;html=1;" vertex="1" parent="1">
          <mxGeometry x="-840" y="198" width="160" height="242" as="geometry" />
        </mxCell>
        <mxCell id="vIy7j_pHb_5L0HNnq9O6-42" value="-&amp;nbsp;ReservationID: Int" style="text;strokeColor=none;fillColor=none;align=left;verticalAlign=top;spacingLeft=4;spacingRight=4;overflow=hidden;rotatable=0;points=[[0,0.5],[1,0.5]];portConstraint=eastwest;whiteSpace=wrap;html=1;" vertex="1" parent="vIy7j_pHb_5L0HNnq9O6-39">
          <mxGeometry y="26" width="160" height="26" as="geometry" />
        </mxCell>
        <mxCell id="vIy7j_pHb_5L0HNnq9O6-43" value="- ReservationType: string" style="text;strokeColor=none;fillColor=none;align=left;verticalAlign=top;spacingLeft=4;spacingRight=4;overflow=hidden;rotatable=0;points=[[0,0.5],[1,0.5]];portConstraint=eastwest;whiteSpace=wrap;html=1;" vertex="1" parent="vIy7j_pHb_5L0HNnq9O6-39">
          <mxGeometry y="52" width="160" height="26" as="geometry" />
        </mxCell>
        <mxCell id="vIy7j_pHb_5L0HNnq9O6-118" value="- StartDate: date" style="text;strokeColor=none;fillColor=none;align=left;verticalAlign=top;spacingLeft=4;spacingRight=4;overflow=hidden;rotatable=0;points=[[0,0.5],[1,0.5]];portConstraint=eastwest;whiteSpace=wrap;html=1;" vertex="1" parent="vIy7j_pHb_5L0HNnq9O6-39">
          <mxGeometry y="78" width="160" height="26" as="geometry" />
        </mxCell>
        <mxCell id="vIy7j_pHb_5L0HNnq9O6-117" value="- EndDate: date" style="text;strokeColor=none;fillColor=none;align=left;verticalAlign=top;spacingLeft=4;spacingRight=4;overflow=hidden;rotatable=0;points=[[0,0.5],[1,0.5]];portConstraint=eastwest;whiteSpace=wrap;html=1;" vertex="1" parent="vIy7j_pHb_5L0HNnq9O6-39">
          <mxGeometry y="104" width="160" height="26" as="geometry" />
        </mxCell>
        <mxCell id="vIy7j_pHb_5L0HNnq9O6-44" value="" style="line;strokeWidth=1;fillColor=none;align=left;verticalAlign=middle;spacingTop=-1;spacingLeft=3;spacingRight=3;rotatable=0;labelPosition=right;points=[];portConstraint=eastwest;strokeColor=inherit;" vertex="1" parent="vIy7j_pHb_5L0HNnq9O6-39">
          <mxGeometry y="130" width="160" height="8" as="geometry" />
        </mxCell>
        <mxCell id="vIy7j_pHb_5L0HNnq9O6-47" value="+ GetReservationID(): int" style="text;strokeColor=none;fillColor=none;align=left;verticalAlign=top;spacingLeft=4;spacingRight=4;overflow=hidden;rotatable=0;points=[[0,0.5],[1,0.5]];portConstraint=eastwest;whiteSpace=wrap;html=1;" vertex="1" parent="vIy7j_pHb_5L0HNnq9O6-39">
          <mxGeometry y="138" width="160" height="26" as="geometry" />
        </mxCell>
        <mxCell id="vIy7j_pHb_5L0HNnq9O6-48" value="+ GetType(): string" style="text;strokeColor=none;fillColor=none;align=left;verticalAlign=top;spacingLeft=4;spacingRight=4;overflow=hidden;rotatable=0;points=[[0,0.5],[1,0.5]];portConstraint=eastwest;whiteSpace=wrap;html=1;" vertex="1" parent="vIy7j_pHb_5L0HNnq9O6-39">
          <mxGeometry y="164" width="160" height="26" as="geometry" />
        </mxCell>
        <mxCell id="vIy7j_pHb_5L0HNnq9O6-115" value="+ GetStartDate(): date" style="text;strokeColor=none;fillColor=none;align=left;verticalAlign=top;spacingLeft=4;spacingRight=4;overflow=hidden;rotatable=0;points=[[0,0.5],[1,0.5]];portConstraint=eastwest;whiteSpace=wrap;html=1;" vertex="1" parent="vIy7j_pHb_5L0HNnq9O6-39">
          <mxGeometry y="190" width="160" height="26" as="geometry" />
        </mxCell>
        <mxCell id="vIy7j_pHb_5L0HNnq9O6-116" value="+ GetEndDate(): date" style="text;strokeColor=none;fillColor=none;align=left;verticalAlign=top;spacingLeft=4;spacingRight=4;overflow=hidden;rotatable=0;points=[[0,0.5],[1,0.5]];portConstraint=eastwest;whiteSpace=wrap;html=1;" vertex="1" parent="vIy7j_pHb_5L0HNnq9O6-39">
          <mxGeometry y="216" width="160" height="26" as="geometry" />
        </mxCell>
        <mxCell id="vIy7j_pHb_5L0HNnq9O6-49" value="Facility" style="swimlane;fontStyle=1;align=center;verticalAlign=top;childLayout=stackLayout;horizontal=1;startSize=26;horizontalStack=0;resizeParent=1;resizeParentMax=0;resizeLast=0;collapsible=1;marginBottom=0;whiteSpace=wrap;html=1;" vertex="1" parent="1">
          <mxGeometry x="-840" y="540" width="160" height="268" as="geometry" />
        </mxCell>
        <mxCell id="vIy7j_pHb_5L0HNnq9O6-50" value="- Name: string" style="text;strokeColor=none;fillColor=none;align=left;verticalAlign=top;spacingLeft=4;spacingRight=4;overflow=hidden;rotatable=0;points=[[0,0.5],[1,0.5]];portConstraint=eastwest;whiteSpace=wrap;html=1;" vertex="1" parent="vIy7j_pHb_5L0HNnq9O6-49">
          <mxGeometry y="26" width="160" height="26" as="geometry" />
        </mxCell>
        <mxCell id="vIy7j_pHb_5L0HNnq9O6-51" value="- FacilityLocation: string" style="text;strokeColor=none;fillColor=none;align=left;verticalAlign=top;spacingLeft=4;spacingRight=4;overflow=hidden;rotatable=0;points=[[0,0.5],[1,0.5]];portConstraint=eastwest;whiteSpace=wrap;html=1;" vertex="1" parent="vIy7j_pHb_5L0HNnq9O6-49">
          <mxGeometry y="52" width="160" height="26" as="geometry" />
        </mxCell>
        <mxCell id="vIy7j_pHb_5L0HNnq9O6-52" value="-&amp;nbsp;FacilityID: Int" style="text;strokeColor=none;fillColor=none;align=left;verticalAlign=top;spacingLeft=4;spacingRight=4;overflow=hidden;rotatable=0;points=[[0,0.5],[1,0.5]];portConstraint=eastwest;whiteSpace=wrap;html=1;" vertex="1" parent="vIy7j_pHb_5L0HNnq9O6-49">
          <mxGeometry y="78" width="160" height="26" as="geometry" />
        </mxCell>
        <mxCell id="vIy7j_pHb_5L0HNnq9O6-73" value="- FacilityType: string" style="text;strokeColor=none;fillColor=none;align=left;verticalAlign=top;spacingLeft=4;spacingRight=4;overflow=hidden;rotatable=0;points=[[0,0.5],[1,0.5]];portConstraint=eastwest;whiteSpace=wrap;html=1;" vertex="1" parent="vIy7j_pHb_5L0HNnq9O6-49">
          <mxGeometry y="104" width="160" height="26" as="geometry" />
        </mxCell>
        <mxCell id="vIy7j_pHb_5L0HNnq9O6-53" value="- Capacitance: int" style="text;strokeColor=none;fillColor=none;align=left;verticalAlign=top;spacingLeft=4;spacingRight=4;overflow=hidden;rotatable=0;points=[[0,0.5],[1,0.5]];portConstraint=eastwest;whiteSpace=wrap;html=1;" vertex="1" parent="vIy7j_pHb_5L0HNnq9O6-49">
          <mxGeometry y="130" width="160" height="26" as="geometry" />
        </mxCell>
        <mxCell id="vIy7j_pHb_5L0HNnq9O6-54" value="" style="line;strokeWidth=1;fillColor=none;align=left;verticalAlign=middle;spacingTop=-1;spacingLeft=3;spacingRight=3;rotatable=0;labelPosition=right;points=[];portConstraint=eastwest;strokeColor=inherit;" vertex="1" parent="vIy7j_pHb_5L0HNnq9O6-49">
          <mxGeometry y="156" width="160" height="8" as="geometry" />
        </mxCell>
        <mxCell id="vIy7j_pHb_5L0HNnq9O6-55" value="+ GetName(): string" style="text;strokeColor=none;fillColor=none;align=left;verticalAlign=top;spacingLeft=4;spacingRight=4;overflow=hidden;rotatable=0;points=[[0,0.5],[1,0.5]];portConstraint=eastwest;whiteSpace=wrap;html=1;" vertex="1" parent="vIy7j_pHb_5L0HNnq9O6-49">
          <mxGeometry y="164" width="160" height="26" as="geometry" />
        </mxCell>
        <mxCell id="vIy7j_pHb_5L0HNnq9O6-56" value="+ GetPhoneNumber(): int" style="text;strokeColor=none;fillColor=none;align=left;verticalAlign=top;spacingLeft=4;spacingRight=4;overflow=hidden;rotatable=0;points=[[0,0.5],[1,0.5]];portConstraint=eastwest;whiteSpace=wrap;html=1;" vertex="1" parent="vIy7j_pHb_5L0HNnq9O6-49">
          <mxGeometry y="190" width="160" height="26" as="geometry" />
        </mxCell>
        <mxCell id="vIy7j_pHb_5L0HNnq9O6-57" value="+ GetUserID(): int" style="text;strokeColor=none;fillColor=none;align=left;verticalAlign=top;spacingLeft=4;spacingRight=4;overflow=hidden;rotatable=0;points=[[0,0.5],[1,0.5]];portConstraint=eastwest;whiteSpace=wrap;html=1;" vertex="1" parent="vIy7j_pHb_5L0HNnq9O6-49">
          <mxGeometry y="216" width="160" height="26" as="geometry" />
        </mxCell>
        <mxCell id="vIy7j_pHb_5L0HNnq9O6-58" value="+ GetType(): string" style="text;strokeColor=none;fillColor=none;align=left;verticalAlign=top;spacingLeft=4;spacingRight=4;overflow=hidden;rotatable=0;points=[[0,0.5],[1,0.5]];portConstraint=eastwest;whiteSpace=wrap;html=1;" vertex="1" parent="vIy7j_pHb_5L0HNnq9O6-49">
          <mxGeometry y="242" width="160" height="26" as="geometry" />
        </mxCell>
        <mxCell id="vIy7j_pHb_5L0HNnq9O6-67" value="Room" style="swimlane;fontStyle=1;align=center;verticalAlign=top;childLayout=stackLayout;horizontal=1;startSize=26;horizontalStack=0;resizeParent=1;resizeParentMax=0;resizeLast=0;collapsible=1;marginBottom=0;whiteSpace=wrap;html=1;" vertex="1" parent="1">
          <mxGeometry x="-520" y="850" width="160" height="86" as="geometry" />
        </mxCell>
        <mxCell id="pluPpm19IUilGA6iMKDm-1" value="- RoomNumber: int" style="text;strokeColor=none;fillColor=none;align=left;verticalAlign=top;spacingLeft=4;spacingRight=4;overflow=hidden;rotatable=0;points=[[0,0.5],[1,0.5]];portConstraint=eastwest;whiteSpace=wrap;html=1;" vertex="1" parent="vIy7j_pHb_5L0HNnq9O6-67">
          <mxGeometry y="26" width="160" height="26" as="geometry" />
        </mxCell>
        <mxCell id="vIy7j_pHb_5L0HNnq9O6-69" value="" style="line;strokeWidth=1;fillColor=none;align=left;verticalAlign=middle;spacingTop=-1;spacingLeft=3;spacingRight=3;rotatable=0;labelPosition=right;points=[];portConstraint=eastwest;strokeColor=inherit;" vertex="1" parent="vIy7j_pHb_5L0HNnq9O6-67">
          <mxGeometry y="52" width="160" height="8" as="geometry" />
        </mxCell>
        <mxCell id="vIy7j_pHb_5L0HNnq9O6-70" value="&amp;nbsp;" style="text;strokeColor=none;fillColor=none;align=left;verticalAlign=top;spacingLeft=4;spacingRight=4;overflow=hidden;rotatable=0;points=[[0,0.5],[1,0.5]];portConstraint=eastwest;whiteSpace=wrap;html=1;" vertex="1" parent="vIy7j_pHb_5L0HNnq9O6-67">
          <mxGeometry y="60" width="160" height="26" as="geometry" />
        </mxCell>
        <mxCell id="vIy7j_pHb_5L0HNnq9O6-71" style="edgeStyle=orthogonalEdgeStyle;rounded=0;orthogonalLoop=1;jettySize=auto;html=1;exitX=0.5;exitY=0;exitDx=0;exitDy=0;entryX=1.015;entryY=0.073;entryDx=0;entryDy=0;entryPerimeter=0;endArrow=block;endFill=0;" edge="1" parent="1" source="vIy7j_pHb_5L0HNnq9O6-67" target="vIy7j_pHb_5L0HNnq9O6-49">
          <mxGeometry relative="1" as="geometry">
            <Array as="points">
              <mxPoint x="-440" y="800" />
              <mxPoint x="-640" y="800" />
              <mxPoint x="-640" y="560" />
            </Array>
          </mxGeometry>
        </mxCell>
        <mxCell id="vIy7j_pHb_5L0HNnq9O6-72" style="edgeStyle=orthogonalEdgeStyle;rounded=0;orthogonalLoop=1;jettySize=auto;html=1;exitX=0.5;exitY=0;exitDx=0;exitDy=0;entryX=0.992;entryY=0.111;entryDx=0;entryDy=0;entryPerimeter=0;endArrow=block;endFill=0;" edge="1" parent="1" source="WeFiFPSYRljII1s766pl-1" target="vIy7j_pHb_5L0HNnq9O6-39">
          <mxGeometry relative="1" as="geometry">
            <Array as="points">
              <mxPoint x="-440" y="440" />
              <mxPoint x="-640" y="440" />
              <mxPoint x="-640" y="225" />
            </Array>
          </mxGeometry>
        </mxCell>
        <mxCell id="vIy7j_pHb_5L0HNnq9O6-81" value="ResortManagementSystem" style="swimlane;fontStyle=1;align=center;verticalAlign=top;childLayout=stackLayout;horizontal=1;startSize=26;horizontalStack=0;resizeParent=1;resizeParentMax=0;resizeLast=0;collapsible=1;marginBottom=0;whiteSpace=wrap;html=1;" vertex="1" parent="1">
          <mxGeometry x="-1400" y="90" width="160" height="86" as="geometry" />
        </mxCell>
        <mxCell id="vIy7j_pHb_5L0HNnq9O6-82" value="&amp;nbsp;" style="text;strokeColor=none;fillColor=none;align=left;verticalAlign=top;spacingLeft=4;spacingRight=4;overflow=hidden;rotatable=0;points=[[0,0.5],[1,0.5]];portConstraint=eastwest;whiteSpace=wrap;html=1;" vertex="1" parent="vIy7j_pHb_5L0HNnq9O6-81">
          <mxGeometry y="26" width="160" height="26" as="geometry" />
        </mxCell>
        <mxCell id="vIy7j_pHb_5L0HNnq9O6-83" value="" style="line;strokeWidth=1;fillColor=none;align=left;verticalAlign=middle;spacingTop=-1;spacingLeft=3;spacingRight=3;rotatable=0;labelPosition=right;points=[];portConstraint=eastwest;strokeColor=inherit;" vertex="1" parent="vIy7j_pHb_5L0HNnq9O6-81">
          <mxGeometry y="52" width="160" height="8" as="geometry" />
        </mxCell>
        <mxCell id="vIy7j_pHb_5L0HNnq9O6-84" value="&amp;nbsp;" style="text;strokeColor=none;fillColor=none;align=left;verticalAlign=top;spacingLeft=4;spacingRight=4;overflow=hidden;rotatable=0;points=[[0,0.5],[1,0.5]];portConstraint=eastwest;whiteSpace=wrap;html=1;" vertex="1" parent="vIy7j_pHb_5L0HNnq9O6-81">
          <mxGeometry y="60" width="160" height="26" as="geometry" />
        </mxCell>
        <mxCell id="vIy7j_pHb_5L0HNnq9O6-92" style="edgeStyle=orthogonalEdgeStyle;rounded=0;orthogonalLoop=1;jettySize=auto;html=1;exitX=1;exitY=0.5;exitDx=0;exitDy=0;endArrow=open;endFill=0;entryX=0;entryY=0.25;entryDx=0;entryDy=0;" edge="1" parent="1" source="vIy7j_pHb_5L0HNnq9O6-36" target="MZK47ivyReXVb0teuUOC-55">
          <mxGeometry relative="1" as="geometry">
            <mxPoint x="1220" y="461" as="targetPoint" />
            <Array as="points">
              <mxPoint x="920" y="176" />
              <mxPoint x="920" y="460" />
              <mxPoint x="1190" y="460" />
              <mxPoint x="1190" y="461" />
            </Array>
          </mxGeometry>
        </mxCell>
        <mxCell id="vIy7j_pHb_5L0HNnq9O6-93" value="1" style="edgeLabel;html=1;align=center;verticalAlign=middle;resizable=0;points=[];" connectable="0" vertex="1" parent="vIy7j_pHb_5L0HNnq9O6-92">
          <mxGeometry x="-0.7819" y="-1" relative="1" as="geometry">
            <mxPoint x="-57" y="-1" as="offset" />
          </mxGeometry>
        </mxCell>
        <mxCell id="vIy7j_pHb_5L0HNnq9O6-94" value="1" style="edgeLabel;html=1;align=center;verticalAlign=middle;resizable=0;points=[];" connectable="0" vertex="1" parent="vIy7j_pHb_5L0HNnq9O6-92">
          <mxGeometry x="0.9211" y="3" relative="1" as="geometry">
            <mxPoint as="offset" />
          </mxGeometry>
        </mxCell>
        <mxCell id="vIy7j_pHb_5L0HNnq9O6-95" value="Contains" style="edgeLabel;html=1;align=center;verticalAlign=middle;resizable=0;points=[];" connectable="0" vertex="1" parent="vIy7j_pHb_5L0HNnq9O6-92">
          <mxGeometry x="-0.0741" y="-1" relative="1" as="geometry">
            <mxPoint as="offset" />
          </mxGeometry>
        </mxCell>
        <mxCell id="vIy7j_pHb_5L0HNnq9O6-97" style="edgeStyle=orthogonalEdgeStyle;rounded=0;orthogonalLoop=1;jettySize=auto;html=1;exitX=0;exitY=0.5;exitDx=0;exitDy=0;entryX=1;entryY=0.089;entryDx=0;entryDy=0;entryPerimeter=0;endArrow=open;endFill=0;" edge="1" parent="1" source="MZK47ivyReXVb0teuUOC-58" target="WeFiFPSYRljII1s766pl-1">
          <mxGeometry relative="1" as="geometry">
            <Array as="points">
              <mxPoint x="1241" y="488" />
            </Array>
          </mxGeometry>
        </mxCell>
        <mxCell id="vIy7j_pHb_5L0HNnq9O6-98" value="1..*" style="edgeLabel;html=1;align=center;verticalAlign=middle;resizable=0;points=[];" connectable="0" vertex="1" parent="vIy7j_pHb_5L0HNnq9O6-97">
          <mxGeometry x="0.9424" y="-1" relative="1" as="geometry">
            <mxPoint as="offset" />
          </mxGeometry>
        </mxCell>
        <mxCell id="vIy7j_pHb_5L0HNnq9O6-99" value="1" style="edgeLabel;html=1;align=center;verticalAlign=middle;resizable=0;points=[];" connectable="0" vertex="1" parent="vIy7j_pHb_5L0HNnq9O6-97">
          <mxGeometry x="-0.958" y="1" relative="1" as="geometry">
            <mxPoint as="offset" />
          </mxGeometry>
        </mxCell>
        <mxCell id="vIy7j_pHb_5L0HNnq9O6-100" value="Contains" style="edgeLabel;html=1;align=center;verticalAlign=middle;resizable=0;points=[];" connectable="0" vertex="1" parent="vIy7j_pHb_5L0HNnq9O6-97">
          <mxGeometry x="-0.5529" y="1" relative="1" as="geometry">
            <mxPoint x="-243" as="offset" />
          </mxGeometry>
        </mxCell>
        <mxCell id="vIy7j_pHb_5L0HNnq9O6-102" style="edgeStyle=orthogonalEdgeStyle;rounded=0;orthogonalLoop=1;jettySize=auto;html=1;exitX=1;exitY=0.5;exitDx=0;exitDy=0;entryX=1;entryY=0.25;entryDx=0;entryDy=0;endArrow=open;endFill=0;" edge="1" parent="1">
          <mxGeometry relative="1" as="geometry">
            <mxPoint x="520" y="148.75" as="sourcePoint" />
            <mxPoint x="-360" y="508.25" as="targetPoint" />
            <Array as="points">
              <mxPoint x="520" y="129.75" />
              <mxPoint x="760" y="129.75" />
              <mxPoint x="760" y="507.75" />
            </Array>
          </mxGeometry>
        </mxCell>
        <mxCell id="vIy7j_pHb_5L0HNnq9O6-103" value="1" style="edgeLabel;html=1;align=center;verticalAlign=middle;resizable=0;points=[];" connectable="0" vertex="1" parent="vIy7j_pHb_5L0HNnq9O6-102">
          <mxGeometry x="-0.9627" y="-1" relative="1" as="geometry">
            <mxPoint as="offset" />
          </mxGeometry>
        </mxCell>
        <mxCell id="vIy7j_pHb_5L0HNnq9O6-104" value="1..*" style="edgeLabel;html=1;align=center;verticalAlign=middle;resizable=0;points=[];" connectable="0" vertex="1" parent="vIy7j_pHb_5L0HNnq9O6-102">
          <mxGeometry x="0.9694" y="2" relative="1" as="geometry">
            <mxPoint as="offset" />
          </mxGeometry>
        </mxCell>
        <mxCell id="vIy7j_pHb_5L0HNnq9O6-105" value="Contains/Add_Family_Member_To" style="edgeLabel;html=1;align=center;verticalAlign=middle;resizable=0;points=[];" connectable="0" vertex="1" parent="vIy7j_pHb_5L0HNnq9O6-102">
          <mxGeometry x="-0.4103" relative="1" as="geometry">
            <mxPoint as="offset" />
          </mxGeometry>
        </mxCell>
        <mxCell id="vIy7j_pHb_5L0HNnq9O6-106" style="edgeStyle=orthogonalEdgeStyle;rounded=0;orthogonalLoop=1;jettySize=auto;html=1;exitX=1;exitY=0.5;exitDx=0;exitDy=0;endArrow=open;endFill=0;entryX=1;entryY=0.095;entryDx=0;entryDy=0;entryPerimeter=0;" edge="1" parent="1" source="WeFiFPSYRljII1s766pl-2" target="vIy7j_pHb_5L0HNnq9O6-21">
          <mxGeometry relative="1" as="geometry">
            <mxPoint x="680" y="-20" as="targetPoint" />
            <Array as="points">
              <mxPoint x="-360" y="530" />
              <mxPoint x="880" y="530" />
              <mxPoint x="880" y="85" />
            </Array>
          </mxGeometry>
        </mxCell>
        <mxCell id="vIy7j_pHb_5L0HNnq9O6-107" value="Contains" style="edgeLabel;html=1;align=center;verticalAlign=middle;resizable=0;points=[];" connectable="0" vertex="1" parent="vIy7j_pHb_5L0HNnq9O6-106">
          <mxGeometry x="0.3957" y="-1" relative="1" as="geometry">
            <mxPoint as="offset" />
          </mxGeometry>
        </mxCell>
        <mxCell id="vIy7j_pHb_5L0HNnq9O6-108" value="1" style="edgeLabel;html=1;align=center;verticalAlign=middle;resizable=0;points=[];" connectable="0" vertex="1" parent="vIy7j_pHb_5L0HNnq9O6-106">
          <mxGeometry x="-0.9686" y="-1" relative="1" as="geometry">
            <mxPoint as="offset" />
          </mxGeometry>
        </mxCell>
        <mxCell id="vIy7j_pHb_5L0HNnq9O6-109" value="1..*" style="edgeLabel;html=1;align=center;verticalAlign=middle;resizable=0;points=[];" connectable="0" vertex="1" parent="vIy7j_pHb_5L0HNnq9O6-106">
          <mxGeometry x="0.9436" y="-2" relative="1" as="geometry">
            <mxPoint x="-38" as="offset" />
          </mxGeometry>
        </mxCell>
        <mxCell id="vIy7j_pHb_5L0HNnq9O6-111" style="edgeStyle=orthogonalEdgeStyle;rounded=0;orthogonalLoop=1;jettySize=auto;html=1;entryX=1;entryY=0.25;entryDx=0;entryDy=0;endArrow=open;endFill=0;" edge="1" parent="1">
          <mxGeometry relative="1" as="geometry">
            <mxPoint x="-360" y="550" as="sourcePoint" />
            <mxPoint x="-360" y="891.5" as="targetPoint" />
            <Array as="points">
              <mxPoint y="550" />
              <mxPoint y="892" />
            </Array>
          </mxGeometry>
        </mxCell>
        <mxCell id="vIy7j_pHb_5L0HNnq9O6-112" value="1..*" style="edgeLabel;html=1;align=center;verticalAlign=middle;resizable=0;points=[];" connectable="0" vertex="1" parent="vIy7j_pHb_5L0HNnq9O6-111">
          <mxGeometry x="-0.9248" y="-4" relative="1" as="geometry">
            <mxPoint as="offset" />
          </mxGeometry>
        </mxCell>
        <mxCell id="vIy7j_pHb_5L0HNnq9O6-113" value="1..*" style="edgeLabel;html=1;align=center;verticalAlign=middle;resizable=0;points=[];" connectable="0" vertex="1" parent="vIy7j_pHb_5L0HNnq9O6-111">
          <mxGeometry x="0.8462" y="-1" relative="1" as="geometry">
            <mxPoint x="-56" as="offset" />
          </mxGeometry>
        </mxCell>
        <mxCell id="vIy7j_pHb_5L0HNnq9O6-114" value="Contains" style="edgeLabel;html=1;align=center;verticalAlign=middle;resizable=0;points=[];" connectable="0" vertex="1" parent="vIy7j_pHb_5L0HNnq9O6-111">
          <mxGeometry x="-0.0031" y="2" relative="1" as="geometry">
            <mxPoint as="offset" />
          </mxGeometry>
        </mxCell>
        <mxCell id="vIy7j_pHb_5L0HNnq9O6-120" value="VIP" style="swimlane;fontStyle=1;align=center;verticalAlign=top;childLayout=stackLayout;horizontal=1;startSize=26;horizontalStack=0;resizeParent=1;resizeParentMax=0;resizeLast=0;collapsible=1;marginBottom=0;whiteSpace=wrap;html=1;" vertex="1" parent="1">
          <mxGeometry x="580" y="224" width="160" height="86" as="geometry" />
        </mxCell>
        <mxCell id="vIy7j_pHb_5L0HNnq9O6-121" value="- VIPLevel: Int" style="text;strokeColor=none;fillColor=none;align=left;verticalAlign=top;spacingLeft=4;spacingRight=4;overflow=hidden;rotatable=0;points=[[0,0.5],[1,0.5]];portConstraint=eastwest;whiteSpace=wrap;html=1;" vertex="1" parent="vIy7j_pHb_5L0HNnq9O6-120">
          <mxGeometry y="26" width="160" height="26" as="geometry" />
        </mxCell>
        <mxCell id="vIy7j_pHb_5L0HNnq9O6-122" value="" style="line;strokeWidth=1;fillColor=none;align=left;verticalAlign=middle;spacingTop=-1;spacingLeft=3;spacingRight=3;rotatable=0;labelPosition=right;points=[];portConstraint=eastwest;strokeColor=inherit;" vertex="1" parent="vIy7j_pHb_5L0HNnq9O6-120">
          <mxGeometry y="52" width="160" height="8" as="geometry" />
        </mxCell>
        <mxCell id="vIy7j_pHb_5L0HNnq9O6-123" value="&amp;nbsp;" style="text;strokeColor=none;fillColor=none;align=left;verticalAlign=top;spacingLeft=4;spacingRight=4;overflow=hidden;rotatable=0;points=[[0,0.5],[1,0.5]];portConstraint=eastwest;whiteSpace=wrap;html=1;" vertex="1" parent="vIy7j_pHb_5L0HNnq9O6-120">
          <mxGeometry y="60" width="160" height="26" as="geometry" />
        </mxCell>
        <mxCell id="vIy7j_pHb_5L0HNnq9O6-125" style="edgeStyle=orthogonalEdgeStyle;rounded=0;orthogonalLoop=1;jettySize=auto;html=1;exitX=1;exitY=0.5;exitDx=0;exitDy=0;entryX=0.5;entryY=0;entryDx=0;entryDy=0;endArrow=open;endFill=0;" edge="1" parent="1" source="vIy7j_pHb_5L0HNnq9O6-24" target="vIy7j_pHb_5L0HNnq9O6-120">
          <mxGeometry relative="1" as="geometry" />
        </mxCell>
        <mxCell id="vIy7j_pHb_5L0HNnq9O6-134" value="Contains" style="edgeLabel;html=1;align=center;verticalAlign=middle;resizable=0;points=[];" connectable="0" vertex="1" parent="vIy7j_pHb_5L0HNnq9O6-125">
          <mxGeometry x="-0.5341" y="-2" relative="1" as="geometry">
            <mxPoint as="offset" />
          </mxGeometry>
        </mxCell>
        <mxCell id="vIy7j_pHb_5L0HNnq9O6-147" value="1" style="edgeLabel;html=1;align=center;verticalAlign=middle;resizable=0;points=[];" connectable="0" vertex="1" parent="vIy7j_pHb_5L0HNnq9O6-125">
          <mxGeometry x="-0.8893" relative="1" as="geometry">
            <mxPoint as="offset" />
          </mxGeometry>
        </mxCell>
        <mxCell id="vIy7j_pHb_5L0HNnq9O6-148" value="1" style="edgeLabel;html=1;align=center;verticalAlign=middle;resizable=0;points=[];" connectable="0" vertex="1" parent="vIy7j_pHb_5L0HNnq9O6-125">
          <mxGeometry x="0.8338" relative="1" as="geometry">
            <mxPoint as="offset" />
          </mxGeometry>
        </mxCell>
        <mxCell id="vIy7j_pHb_5L0HNnq9O6-128" style="edgeStyle=orthogonalEdgeStyle;rounded=0;orthogonalLoop=1;jettySize=auto;html=1;exitX=1;exitY=0.5;exitDx=0;exitDy=0;entryX=0;entryY=0.158;entryDx=0;entryDy=0;entryPerimeter=0;" edge="1" parent="1" source="vIy7j_pHb_5L0HNnq9O6-82" target="vIy7j_pHb_5L0HNnq9O6-11">
          <mxGeometry relative="1" as="geometry" />
        </mxCell>
        <mxCell id="vIy7j_pHb_5L0HNnq9O6-129" value="1" style="edgeLabel;html=1;align=center;verticalAlign=middle;resizable=0;points=[];" connectable="0" vertex="1" parent="vIy7j_pHb_5L0HNnq9O6-128">
          <mxGeometry x="-0.922" y="3" relative="1" as="geometry">
            <mxPoint as="offset" />
          </mxGeometry>
        </mxCell>
        <mxCell id="vIy7j_pHb_5L0HNnq9O6-130" value="1..*" style="edgeLabel;html=1;align=center;verticalAlign=middle;resizable=0;points=[];" connectable="0" vertex="1" parent="vIy7j_pHb_5L0HNnq9O6-128">
          <mxGeometry x="0.8249" y="-1" relative="1" as="geometry">
            <mxPoint y="-11" as="offset" />
          </mxGeometry>
        </mxCell>
        <mxCell id="vIy7j_pHb_5L0HNnq9O6-131" value="Manages" style="edgeLabel;html=1;align=center;verticalAlign=middle;resizable=0;points=[];" connectable="0" vertex="1" parent="vIy7j_pHb_5L0HNnq9O6-128">
          <mxGeometry x="-0.363" y="1" relative="1" as="geometry">
            <mxPoint as="offset" />
          </mxGeometry>
        </mxCell>
        <mxCell id="vIy7j_pHb_5L0HNnq9O6-135" style="edgeStyle=orthogonalEdgeStyle;rounded=0;orthogonalLoop=1;jettySize=auto;html=1;exitX=1;exitY=0.5;exitDx=0;exitDy=0;endArrow=open;endFill=0;" edge="1" parent="1" source="WeFiFPSYRljII1s766pl-24" target="vIy7j_pHb_5L0HNnq9O6-120">
          <mxGeometry relative="1" as="geometry" />
        </mxCell>
        <mxCell id="vIy7j_pHb_5L0HNnq9O6-136" value="Promote" style="edgeLabel;html=1;align=center;verticalAlign=middle;resizable=0;points=[];" connectable="0" vertex="1" parent="vIy7j_pHb_5L0HNnq9O6-135">
          <mxGeometry x="-0.3424" y="-1" relative="1" as="geometry">
            <mxPoint as="offset" />
          </mxGeometry>
        </mxCell>
        <mxCell id="vIy7j_pHb_5L0HNnq9O6-137" value="1..*" style="edgeLabel;html=1;align=center;verticalAlign=middle;resizable=0;points=[];" connectable="0" vertex="1" parent="vIy7j_pHb_5L0HNnq9O6-135">
          <mxGeometry x="-0.8639" y="1" relative="1" as="geometry">
            <mxPoint as="offset" />
          </mxGeometry>
        </mxCell>
        <mxCell id="vIy7j_pHb_5L0HNnq9O6-138" value="1" style="edgeLabel;html=1;align=center;verticalAlign=middle;resizable=0;points=[];" connectable="0" vertex="1" parent="vIy7j_pHb_5L0HNnq9O6-135">
          <mxGeometry x="0.7071" y="-1" relative="1" as="geometry">
            <mxPoint y="-4" as="offset" />
          </mxGeometry>
        </mxCell>
        <mxCell id="vIy7j_pHb_5L0HNnq9O6-139" style="edgeStyle=orthogonalEdgeStyle;rounded=0;orthogonalLoop=1;jettySize=auto;html=1;exitX=1;exitY=0.5;exitDx=0;exitDy=0;entryX=0.5;entryY=0;entryDx=0;entryDy=0;endArrow=open;endFill=0;" edge="1" parent="1" source="vIy7j_pHb_5L0HNnq9O6-38" target="MZK47ivyReXVb0teuUOC-55">
          <mxGeometry relative="1" as="geometry" />
        </mxCell>
        <mxCell id="vIy7j_pHb_5L0HNnq9O6-140" value="Check" style="edgeLabel;html=1;align=center;verticalAlign=middle;resizable=0;points=[];" connectable="0" vertex="1" parent="vIy7j_pHb_5L0HNnq9O6-139">
          <mxGeometry x="0.4652" y="-3" relative="1" as="geometry">
            <mxPoint as="offset" />
          </mxGeometry>
        </mxCell>
        <mxCell id="vIy7j_pHb_5L0HNnq9O6-141" value="1..*" style="edgeLabel;html=1;align=center;verticalAlign=middle;resizable=0;points=[];" connectable="0" vertex="1" parent="vIy7j_pHb_5L0HNnq9O6-139">
          <mxGeometry x="0.9533" y="2" relative="1" as="geometry">
            <mxPoint as="offset" />
          </mxGeometry>
        </mxCell>
        <mxCell id="vIy7j_pHb_5L0HNnq9O6-142" value="1..*" style="edgeLabel;html=1;align=center;verticalAlign=middle;resizable=0;points=[];" connectable="0" vertex="1" parent="vIy7j_pHb_5L0HNnq9O6-139">
          <mxGeometry x="-0.935" y="-3" relative="1" as="geometry">
            <mxPoint as="offset" />
          </mxGeometry>
        </mxCell>
        <mxCell id="vIy7j_pHb_5L0HNnq9O6-143" style="edgeStyle=orthogonalEdgeStyle;rounded=0;orthogonalLoop=1;jettySize=auto;html=1;exitX=1;exitY=0.5;exitDx=0;exitDy=0;entryX=0.75;entryY=0;entryDx=0;entryDy=0;" edge="1" parent="1" source="WeFiFPSYRljII1s766pl-27" target="WeFiFPSYRljII1s766pl-1">
          <mxGeometry relative="1" as="geometry" />
        </mxCell>
        <mxCell id="vIy7j_pHb_5L0HNnq9O6-144" value="1..*" style="edgeLabel;html=1;align=center;verticalAlign=middle;resizable=0;points=[];" connectable="0" vertex="1" parent="vIy7j_pHb_5L0HNnq9O6-143">
          <mxGeometry x="-0.9221" y="-1" relative="1" as="geometry">
            <mxPoint as="offset" />
          </mxGeometry>
        </mxCell>
        <mxCell id="vIy7j_pHb_5L0HNnq9O6-145" value="1..*" style="edgeLabel;html=1;align=center;verticalAlign=middle;resizable=0;points=[];" connectable="0" vertex="1" parent="vIy7j_pHb_5L0HNnq9O6-143">
          <mxGeometry x="0.9506" y="2" relative="1" as="geometry">
            <mxPoint as="offset" />
          </mxGeometry>
        </mxCell>
        <mxCell id="vIy7j_pHb_5L0HNnq9O6-146" value="Add_Family_Member_To" style="edgeLabel;html=1;align=center;verticalAlign=middle;resizable=0;points=[];" connectable="0" vertex="1" parent="vIy7j_pHb_5L0HNnq9O6-143">
          <mxGeometry x="0.3519" y="-2" relative="1" as="geometry">
            <mxPoint as="offset" />
          </mxGeometry>
        </mxCell>
        <mxCell id="vIy7j_pHb_5L0HNnq9O6-149" style="edgeStyle=orthogonalEdgeStyle;rounded=0;orthogonalLoop=1;jettySize=auto;html=1;exitX=1;exitY=0.5;exitDx=0;exitDy=0;" edge="1" parent="1" source="vIy7j_pHb_5L0HNnq9O6-12" target="vIy7j_pHb_5L0HNnq9O6-21">
          <mxGeometry relative="1" as="geometry" />
        </mxCell>
        <mxCell id="pluPpm19IUilGA6iMKDm-11" value="1..*" style="edgeLabel;html=1;align=center;verticalAlign=middle;resizable=0;points=[];" connectable="0" vertex="1" parent="vIy7j_pHb_5L0HNnq9O6-149">
          <mxGeometry x="-0.888" y="1" relative="1" as="geometry">
            <mxPoint x="1" as="offset" />
          </mxGeometry>
        </mxCell>
        <mxCell id="pluPpm19IUilGA6iMKDm-12" value="1..*" style="edgeLabel;html=1;align=center;verticalAlign=middle;resizable=0;points=[];" connectable="0" vertex="1" parent="vIy7j_pHb_5L0HNnq9O6-149">
          <mxGeometry x="0.8467" y="3" relative="1" as="geometry">
            <mxPoint x="1" as="offset" />
          </mxGeometry>
        </mxCell>
        <mxCell id="pluPpm19IUilGA6iMKDm-13" value="Have" style="edgeLabel;html=1;align=center;verticalAlign=middle;resizable=0;points=[];" connectable="0" vertex="1" parent="vIy7j_pHb_5L0HNnq9O6-149">
          <mxGeometry x="-0.0813" y="2" relative="1" as="geometry">
            <mxPoint as="offset" />
          </mxGeometry>
        </mxCell>
        <mxCell id="vIy7j_pHb_5L0HNnq9O6-150" style="edgeStyle=orthogonalEdgeStyle;rounded=0;orthogonalLoop=1;jettySize=auto;html=1;exitX=1;exitY=0.5;exitDx=0;exitDy=0;entryX=0;entryY=0.5;entryDx=0;entryDy=0;" edge="1" parent="1" source="vIy7j_pHb_5L0HNnq9O6-85" target="WeFiFPSYRljII1s766pl-22">
          <mxGeometry relative="1" as="geometry">
            <Array as="points">
              <mxPoint x="-940" y="170" />
              <mxPoint x="-600" y="170" />
              <mxPoint x="-600" y="309" />
            </Array>
          </mxGeometry>
        </mxCell>
        <mxCell id="pluPpm19IUilGA6iMKDm-8" value="1..*" style="edgeLabel;html=1;align=center;verticalAlign=middle;resizable=0;points=[];" connectable="0" vertex="1" parent="vIy7j_pHb_5L0HNnq9O6-150">
          <mxGeometry x="-0.7862" y="2" relative="1" as="geometry">
            <mxPoint x="1" as="offset" />
          </mxGeometry>
        </mxCell>
        <mxCell id="pluPpm19IUilGA6iMKDm-9" value="1..*" style="edgeLabel;html=1;align=center;verticalAlign=middle;resizable=0;points=[];" connectable="0" vertex="1" parent="vIy7j_pHb_5L0HNnq9O6-150">
          <mxGeometry x="0.8458" y="1" relative="1" as="geometry">
            <mxPoint as="offset" />
          </mxGeometry>
        </mxCell>
        <mxCell id="pluPpm19IUilGA6iMKDm-10" value="Have" style="edgeLabel;html=1;align=center;verticalAlign=middle;resizable=0;points=[];" connectable="0" vertex="1" parent="vIy7j_pHb_5L0HNnq9O6-150">
          <mxGeometry x="-0.2763" y="-3" relative="1" as="geometry">
            <mxPoint x="1" as="offset" />
          </mxGeometry>
        </mxCell>
        <mxCell id="vIy7j_pHb_5L0HNnq9O6-151" style="edgeStyle=orthogonalEdgeStyle;rounded=0;orthogonalLoop=1;jettySize=auto;html=1;exitX=1;exitY=0.5;exitDx=0;exitDy=0;entryX=0;entryY=0.5;entryDx=0;entryDy=0;endArrow=open;endFill=0;" edge="1" parent="1" source="vIy7j_pHb_5L0HNnq9O6-14" target="WeFiFPSYRljII1s766pl-2">
          <mxGeometry relative="1" as="geometry">
            <Array as="points">
              <mxPoint x="-940" y="190" />
              <mxPoint x="-880" y="190" />
              <mxPoint x="-880" y="519" />
            </Array>
          </mxGeometry>
        </mxCell>
        <mxCell id="pluPpm19IUilGA6iMKDm-5" value="Has" style="edgeLabel;html=1;align=center;verticalAlign=middle;resizable=0;points=[];" connectable="0" vertex="1" parent="vIy7j_pHb_5L0HNnq9O6-151">
          <mxGeometry x="0.3421" y="2" relative="1" as="geometry">
            <mxPoint as="offset" />
          </mxGeometry>
        </mxCell>
        <mxCell id="pluPpm19IUilGA6iMKDm-6" value="1..*" style="edgeLabel;html=1;align=center;verticalAlign=middle;resizable=0;points=[];" connectable="0" vertex="1" parent="vIy7j_pHb_5L0HNnq9O6-151">
          <mxGeometry x="0.8876" y="1" relative="1" as="geometry">
            <mxPoint as="offset" />
          </mxGeometry>
        </mxCell>
        <mxCell id="pluPpm19IUilGA6iMKDm-7" value="1" style="edgeLabel;html=1;align=center;verticalAlign=middle;resizable=0;points=[];" connectable="0" vertex="1" parent="vIy7j_pHb_5L0HNnq9O6-151">
          <mxGeometry x="-0.8909" y="5" relative="1" as="geometry">
            <mxPoint x="1" as="offset" />
          </mxGeometry>
        </mxCell>
        <mxCell id="vIy7j_pHb_5L0HNnq9O6-156" style="edgeStyle=orthogonalEdgeStyle;rounded=0;orthogonalLoop=1;jettySize=auto;html=1;exitX=1;exitY=0.5;exitDx=0;exitDy=0;entryX=0;entryY=0.5;entryDx=0;entryDy=0;endArrow=open;endFill=0;" edge="1" parent="1" source="vIy7j_pHb_5L0HNnq9O6-14">
          <mxGeometry relative="1" as="geometry">
            <mxPoint x="-920" y="210.99999999999955" as="sourcePoint" />
            <mxPoint x="-520" y="889.0000000000005" as="targetPoint" />
            <Array as="points">
              <mxPoint x="-920" y="211" />
              <mxPoint x="-920" y="889" />
            </Array>
          </mxGeometry>
        </mxCell>
        <mxCell id="pluPpm19IUilGA6iMKDm-2" value="1" style="edgeLabel;html=1;align=center;verticalAlign=middle;resizable=0;points=[];" connectable="0" vertex="1" parent="vIy7j_pHb_5L0HNnq9O6-156">
          <mxGeometry x="-0.9852" relative="1" as="geometry">
            <mxPoint as="offset" />
          </mxGeometry>
        </mxCell>
        <mxCell id="pluPpm19IUilGA6iMKDm-3" value="1..*" style="edgeLabel;html=1;align=center;verticalAlign=middle;resizable=0;points=[];" connectable="0" vertex="1" parent="vIy7j_pHb_5L0HNnq9O6-156">
          <mxGeometry x="0.9498" y="1" relative="1" as="geometry">
            <mxPoint as="offset" />
          </mxGeometry>
        </mxCell>
        <mxCell id="pluPpm19IUilGA6iMKDm-4" value="Has" style="edgeLabel;html=1;align=center;verticalAlign=middle;resizable=0;points=[];" connectable="0" vertex="1" parent="vIy7j_pHb_5L0HNnq9O6-156">
          <mxGeometry x="0.3903" y="2" relative="1" as="geometry">
            <mxPoint as="offset" />
          </mxGeometry>
        </mxCell>
      </root>
    </mxGraphModel>
  </diagram>
</mxfile>
